<svg width="24" height="24" viewBox="0 0 24 24" fill="none" xmlns="http://www.w3.org/2000/svg">
<g id="fluent:highlight-16-regular">
<path id="Vector" d="M3.75 1.5C3.94891 1.5 4.13968 1.57902 4.28033 1.71967C4.42098 1.86032 4.5 2.05109 4.5 2.25V6.75C4.5 6.94891 4.57902 7.13968 4.71967 7.28033C4.86032 7.42098 5.05109 7.5 5.25 7.5H18.753C18.9519 7.5 19.1427 7.42098 19.2833 7.28033C19.424 7.13968 19.503 6.94891 19.503 6.75V2.25C19.503 2.05109 19.582 1.86032 19.7227 1.71967C19.8633 1.57902 20.0541 1.5 20.253 1.5C20.4519 1.5 20.6427 1.57902 20.7833 1.71967C20.924 1.86032 21.003 2.05109 21.003 2.25V6.75C21.0031 7.21567 20.8588 7.66991 20.5898 8.05007C20.3209 8.43023 19.9406 8.71759 19.5015 8.8725V10.5C19.5015 11.2956 19.1854 12.0587 18.6228 12.6213C18.0602 13.1839 17.2971 13.5 16.5015 13.5H16.5L16.5045 16.11C16.5051 16.4877 16.4106 16.8596 16.2298 17.1912C16.0489 17.5228 15.7874 17.8035 15.4695 18.0075L8.6595 22.3815C8.54617 22.4542 8.41535 22.4951 8.28078 22.4998C8.14621 22.5045 8.01285 22.4729 7.8947 22.4083C7.77656 22.3437 7.67798 22.2485 7.60932 22.1327C7.54066 22.0168 7.50446 21.8847 7.5045 21.75V13.5H7.5C6.70435 13.5 5.94129 13.1839 5.37868 12.6213C4.81607 12.0587 4.5 11.2956 4.5 10.5V8.8725C4.06113 8.71734 3.68119 8.42988 3.41254 8.04974C3.14389 7.6696 2.99976 7.21549 3 6.75V2.25C3 2.05109 3.07902 1.86032 3.21967 1.71967C3.36032 1.57902 3.55109 1.5 3.75 1.5ZM9.0045 13.5V20.3775L14.6595 16.7445C14.7653 16.6766 14.8524 16.5832 14.9127 16.4728C14.973 16.3625 15.0045 16.2387 15.0045 16.113L15 13.5H9.0045ZM6 10.5C6 10.8978 6.15804 11.2794 6.43934 11.5607C6.72064 11.842 7.10218 12 7.5 12H16.5C16.8978 12 17.2794 11.842 17.5607 11.5607C17.842 11.2794 18 10.8978 18 10.5V9H6V10.5Z" fill="black"/>
</g>
</svg>
