<svg width="13" height="13" viewBox="0 0 13 13" fill="none" xmlns="http://www.w3.org/2000/svg">
<g id="lineicons:share" clip-path="url(#clip0_153_194)">
<path id="Vector" d="M5.99238 8.65324C6.23613 8.65324 6.45957 8.45011 6.45957 8.18605V5.13917C6.45957 4.0423 7.35332 3.14855 8.45019 3.14855H10.8674L9.68926 4.26574C9.50645 4.44855 9.50644 4.73292 9.66894 4.91574C9.7502 5.0173 9.87207 5.05792 9.99395 5.05792C10.1158 5.05792 10.2174 5.0173 10.2986 4.93605L12.1674 3.16886C12.2893 3.04699 12.3705 2.86417 12.3705 2.68136C12.3705 2.49855 12.2893 2.33605 12.1674 2.21417L10.2986 0.487612C10.1158 0.325112 9.83145 0.325112 9.64863 0.507925C9.48613 0.690737 9.48613 0.975112 9.66894 1.15792L10.8471 2.2548H8.40957C6.80488 2.2548 5.50488 3.5548 5.50488 5.15949V8.20636C5.54551 8.45011 5.74863 8.65324 5.99238 8.65324Z" fill="#616161"/>
<path id="Vector_2" d="M11.9848 7.73906C11.741 7.73906 11.5176 7.94219 11.5176 8.20625V11.1516C11.5176 11.4766 11.2535 11.7406 10.9285 11.7406H2.07227C1.74727 11.7406 1.4832 11.4766 1.4832 11.1516V8.18594C1.4832 7.94219 1.28008 7.71875 1.01602 7.71875C0.751953 7.71875 0.548828 7.92187 0.548828 8.18594V11.1312C0.548828 11.9641 1.21914 12.6344 2.05195 12.6344H10.9285C11.7613 12.6344 12.4316 11.9641 12.4316 11.1312V8.18594C12.452 7.94219 12.2488 7.73906 11.9848 7.73906Z" fill="#616161"/>
</g>
<defs>
<clipPath id="clip0_153_194">
<rect width="13" height="13" fill="white"/>
</clipPath>
</defs>
</svg>
