<svg width="24" height="24" viewBox="0 0 24 24" fill="none" xmlns="http://www.w3.org/2000/svg">
<g id="material-symbols-light:dark-mode">
<path id="Vector" d="M12.0576 20.0002C9.83495 20.0002 7.94595 19.2225 6.39062 17.6672C4.83528 16.1119 4.05762 14.2229 4.05762 12.0002C4.05762 9.97419 4.71762 8.21752 6.03762 6.73019C7.35762 5.24286 8.99228 4.36486 10.9416 4.09619C10.9956 4.09619 11.0486 4.09819 11.1006 4.10219C11.1526 4.10619 11.2036 4.11186 11.2536 4.11919C10.9163 4.58986 10.6493 5.11319 10.4526 5.68919C10.256 6.26519 10.1576 6.86886 10.1576 7.50019C10.1576 9.27819 10.7796 10.7892 12.0236 12.0332C13.2676 13.2772 14.779 13.8995 16.5576 13.9002C17.1916 13.9002 17.7959 13.8019 18.3706 13.6052C18.9453 13.4085 19.4613 13.1415 19.9186 12.8042C19.9266 12.8542 19.9323 12.9052 19.9356 12.9572C19.939 13.0092 19.9409 13.0622 19.9416 13.1162C19.6856 15.0649 18.8139 16.6992 17.3266 18.0192C15.8393 19.3392 14.0836 19.9995 12.0576 20.0002Z" fill="#A9A9A6"/>
</g>
</svg>
