<svg width="24" height="24" viewBox="0 0 24 24" fill="none" xmlns="http://www.w3.org/2000/svg">
<g id="mynaui:notification">
<path id="Vector" d="M11.5 3H9.4C7.16 3 6.04 3 5.184 3.436C4.43139 3.81949 3.81949 4.43139 3.436 5.184C3 6.04 3 7.16 3 9.4V14.6C3 16.84 3 17.96 3.436 18.816C3.81949 19.5686 4.43139 20.1805 5.184 20.564C6.04 21 7.16 21 9.4 21H14.6C16.84 21 17.96 21 18.816 20.564C19.5686 20.1805 20.1805 19.5686 20.564 18.816C21 17.96 21 16.84 21 14.6V12.5M21 5.75C21 6.47935 20.7103 7.17882 20.1945 7.69454C19.6788 8.21027 18.9793 8.5 18.25 8.5C17.5207 8.5 16.8212 8.21027 16.3055 7.69454C15.7897 7.17882 15.5 6.47935 15.5 5.75C15.5 5.02065 15.7897 4.32118 16.3055 3.80546C16.8212 3.28973 17.5207 3 18.25 3C18.9793 3 19.6788 3.28973 20.1945 3.80546C20.7103 4.32118 21 5.02065 21 5.75Z" stroke="#A9A9A6" stroke-width="1.5" stroke-linecap="round" stroke-linejoin="round"/>
<path id="Vector_2" d="M22 5.5C22 6.19223 21.7947 6.86892 21.4101 7.4445C21.0256 8.02007 20.4789 8.46867 19.8394 8.73358C19.1998 8.99848 18.4961 9.0678 17.8172 8.93275C17.1383 8.7977 16.5146 8.46436 16.0251 7.97487C15.5356 7.48539 15.2023 6.86175 15.0673 6.18282C14.9322 5.50389 15.0015 4.80015 15.2664 4.16061C15.5313 3.52107 15.9799 2.97444 16.5555 2.58986C17.1311 2.20527 17.8078 2 18.5 2C19.4283 2 20.3185 2.36875 20.9749 3.02513C21.6313 3.6815 22 4.57174 22 5.5Z" fill="#E85725"/>
</g>
</svg>
