<svg width="4" height="4" viewBox="0 0 4 4" fill="none" xmlns="http://www.w3.org/2000/svg">
<path id="Vector" d="M4 2C4 2.39556 3.8827 2.78224 3.66294 3.11114C3.44318 3.44004 3.13082 3.69638 2.76537 3.84776C2.39991 3.99913 1.99778 4.03874 1.60982 3.96157C1.22186 3.8844 0.865493 3.69392 0.585788 3.41421C0.306083 3.13451 0.115601 2.77814 0.0384303 2.39018C-0.0387401 2.00222 0.000866562 1.60008 0.152242 1.23463C0.303617 0.86918 0.559961 0.556824 0.88886 0.337061C1.21776 0.117298 1.60444 0 2 0C2.53043 0 3.03914 0.210714 3.41422 0.585787C3.78929 0.960859 4 1.46957 4 2Z" fill="black"/>
</svg>
